<mxfile host="app.diagrams.net" agent="Mozilla/5.0 (Windows NT 10.0; Win64; x64) AppleWebKit/537.36 (KHTML, like Gecko) Chrome/140.0.0.0 Safari/537.36 Edg/140.0.0.0" version="28.2.7">
  <diagram name="Página-1" id="W4MDRilYruKywepNzvlK">
    <mxGraphModel grid="1" page="1" gridSize="10" guides="1" tooltips="1" connect="1" arrows="1" fold="1" pageScale="1" pageWidth="827" pageHeight="1169" math="0" shadow="0">
      <root>
        <mxCell id="0" />
        <mxCell id="1" parent="0" />
        <mxCell id="cOdwmNu_WqEbCSpz8FeY-2" value="&lt;p style=&quot;margin:0px;margin-top:4px;text-align:center;text-decoration:underline;&quot;&gt;&lt;b&gt;Usuario&lt;/b&gt;&lt;/p&gt;&lt;hr size=&quot;1&quot; style=&quot;border-style:solid;&quot;&gt;&lt;p style=&quot;margin:0px;margin-left:8px;&quot;&gt;id = 1&lt;br&gt;nome = &quot;João Silva&quot;&lt;br&gt;email = &quot;joao@gmail.com&quot;&lt;/p&gt;" style="verticalAlign=top;align=left;overflow=fill;html=1;whiteSpace=wrap;" vertex="1" parent="1">
          <mxGeometry x="40" y="40" width="200" height="80" as="geometry" />
        </mxCell>
        <mxCell id="cOdwmNu_WqEbCSpz8FeY-7" style="edgeStyle=orthogonalEdgeStyle;rounded=0;orthogonalLoop=1;jettySize=auto;html=1;entryX=0;entryY=0.5;entryDx=0;entryDy=0;" edge="1" parent="1" source="cOdwmNu_WqEbCSpz8FeY-4" target="cOdwmNu_WqEbCSpz8FeY-5">
          <mxGeometry relative="1" as="geometry" />
        </mxCell>
        <mxCell id="cOdwmNu_WqEbCSpz8FeY-13" style="edgeStyle=orthogonalEdgeStyle;rounded=0;orthogonalLoop=1;jettySize=auto;html=1;entryX=0.5;entryY=0;entryDx=0;entryDy=0;" edge="1" parent="1" source="cOdwmNu_WqEbCSpz8FeY-4" target="cOdwmNu_WqEbCSpz8FeY-11">
          <mxGeometry relative="1" as="geometry" />
        </mxCell>
        <mxCell id="cOdwmNu_WqEbCSpz8FeY-4" value="&lt;p style=&quot;margin:0px;margin-top:4px;text-align:center;text-decoration:underline;&quot;&gt;&lt;b&gt;Pedido&lt;/b&gt;&lt;/p&gt;&lt;hr size=&quot;1&quot; style=&quot;border-style:solid;&quot;&gt;&lt;p style=&quot;margin:0px;margin-left:8px;&quot;&gt;id = 301&lt;br&gt;data = 14/10/2025&lt;br&gt;status = &quot;Em entrega&quot;&lt;/p&gt;&lt;p style=&quot;margin:0px;margin-left:8px;&quot;&gt;valor total = 45&lt;/p&gt;" style="verticalAlign=top;align=left;overflow=fill;html=1;whiteSpace=wrap;" vertex="1" parent="1">
          <mxGeometry x="320" y="40" width="200" height="100" as="geometry" />
        </mxCell>
        <mxCell id="cOdwmNu_WqEbCSpz8FeY-5" value="&lt;p style=&quot;margin:0px;margin-top:4px;text-align:center;text-decoration:underline;&quot;&gt;&lt;b&gt;Endereco&lt;/b&gt;&lt;/p&gt;&lt;hr size=&quot;1&quot; style=&quot;border-style:solid;&quot;&gt;&lt;p style=&quot;margin:0px;margin-left:8px;&quot;&gt;id = 101&lt;br&gt;cidade = &quot;Brasília&quot;&lt;/p&gt;&lt;p style=&quot;margin:0px;margin-left:8px;&quot;&gt;rua = &quot;Rua das Flores&quot;&lt;br&gt;cep = 72323-105&lt;/p&gt;" style="verticalAlign=top;align=left;overflow=fill;html=1;whiteSpace=wrap;" vertex="1" parent="1">
          <mxGeometry x="590" y="40" width="200" height="100" as="geometry" />
        </mxCell>
        <mxCell id="cOdwmNu_WqEbCSpz8FeY-6" style="edgeStyle=orthogonalEdgeStyle;rounded=0;orthogonalLoop=1;jettySize=auto;html=1;entryX=1;entryY=0.625;entryDx=0;entryDy=0;entryPerimeter=0;" edge="1" parent="1" source="cOdwmNu_WqEbCSpz8FeY-4" target="cOdwmNu_WqEbCSpz8FeY-2">
          <mxGeometry relative="1" as="geometry" />
        </mxCell>
        <mxCell id="cOdwmNu_WqEbCSpz8FeY-8" value="1" style="text;html=1;whiteSpace=wrap;strokeColor=none;fillColor=none;align=center;verticalAlign=middle;rounded=0;" vertex="1" parent="1">
          <mxGeometry x="550" y="60" width="60" height="30" as="geometry" />
        </mxCell>
        <mxCell id="cOdwmNu_WqEbCSpz8FeY-9" value="1" style="text;html=1;whiteSpace=wrap;strokeColor=none;fillColor=none;align=center;verticalAlign=middle;rounded=0;" vertex="1" parent="1">
          <mxGeometry x="220" y="60" width="60" height="30" as="geometry" />
        </mxCell>
        <mxCell id="cOdwmNu_WqEbCSpz8FeY-21" style="edgeStyle=orthogonalEdgeStyle;rounded=0;orthogonalLoop=1;jettySize=auto;html=1;entryX=0.5;entryY=0;entryDx=0;entryDy=0;" edge="1" parent="1" source="cOdwmNu_WqEbCSpz8FeY-10" target="cOdwmNu_WqEbCSpz8FeY-17">
          <mxGeometry relative="1" as="geometry" />
        </mxCell>
        <mxCell id="cOdwmNu_WqEbCSpz8FeY-10" value="&lt;p style=&quot;margin:0px;margin-top:4px;text-align:center;text-decoration:underline;&quot;&gt;&lt;b&gt;ItemPedido&lt;/b&gt;&lt;/p&gt;&lt;hr size=&quot;1&quot; style=&quot;border-style:solid;&quot;&gt;&lt;p style=&quot;margin:0px;margin-left:8px;&quot;&gt;id = 1&lt;/p&gt;&lt;p style=&quot;margin:0px;margin-left:8px;&quot;&gt;quantidade = 5&lt;br&gt;nome = &quot;Banana Nanica&quot;&lt;br&gt;&lt;/p&gt;&lt;p style=&quot;margin:0px;margin-left:8px;&quot;&gt;preco_unit = 4.5&lt;/p&gt;&lt;p style=&quot;margin:0px;margin-left:8px;&quot;&gt;subtotal = 45&lt;/p&gt;" style="verticalAlign=top;align=left;overflow=fill;html=1;whiteSpace=wrap;" vertex="1" parent="1">
          <mxGeometry x="40" y="280" width="200" height="110" as="geometry" />
        </mxCell>
        <mxCell id="cOdwmNu_WqEbCSpz8FeY-11" value="&lt;p style=&quot;margin:0px;margin-top:4px;text-align:center;text-decoration:underline;&quot;&gt;&lt;b&gt;Pagamento&lt;/b&gt;&lt;/p&gt;&lt;hr size=&quot;1&quot; style=&quot;border-style:solid;&quot;&gt;&lt;p style=&quot;margin:0px;margin-left:8px;&quot;&gt;metodo = &quot;pix&quot;&lt;/p&gt;&lt;p style=&quot;margin:0px;margin-left:8px;&quot;&gt;Status = &quot;pago&quot;&lt;br&gt;&lt;/p&gt;&lt;p style=&quot;margin:0px;margin-left:8px;&quot;&gt;valor = 45&lt;/p&gt;" style="verticalAlign=top;align=left;overflow=fill;html=1;whiteSpace=wrap;" vertex="1" parent="1">
          <mxGeometry x="320" y="280" width="200" height="110" as="geometry" />
        </mxCell>
        <mxCell id="cOdwmNu_WqEbCSpz8FeY-12" value="&lt;p style=&quot;margin:0px;margin-top:4px;text-align:center;text-decoration:underline;&quot;&gt;&lt;b&gt;Entrega&lt;/b&gt;&lt;/p&gt;&lt;hr size=&quot;1&quot; style=&quot;border-style:solid;&quot;&gt;&lt;p style=&quot;margin:0px;margin-left:8px;&quot;&gt;status = &quot;saiu para entrega&quot;&lt;/p&gt;&lt;p style=&quot;margin:0px;margin-left:8px;&quot;&gt;previsao = &quot;14/10/2025 - 17h&quot;&lt;br&gt;&lt;/p&gt;&lt;p style=&quot;margin:0px;margin-left:8px;&quot;&gt;&lt;br&gt;&lt;/p&gt;" style="verticalAlign=top;align=left;overflow=fill;html=1;whiteSpace=wrap;" vertex="1" parent="1">
          <mxGeometry x="590" y="280" width="200" height="110" as="geometry" />
        </mxCell>
        <mxCell id="cOdwmNu_WqEbCSpz8FeY-15" style="edgeStyle=orthogonalEdgeStyle;rounded=0;orthogonalLoop=1;jettySize=auto;html=1;entryX=0.5;entryY=0;entryDx=0;entryDy=0;" edge="1" parent="1" target="cOdwmNu_WqEbCSpz8FeY-12">
          <mxGeometry relative="1" as="geometry">
            <mxPoint x="420" y="210" as="sourcePoint" />
            <mxPoint x="780" y="210" as="targetPoint" />
          </mxGeometry>
        </mxCell>
        <mxCell id="cOdwmNu_WqEbCSpz8FeY-16" style="edgeStyle=orthogonalEdgeStyle;rounded=0;orthogonalLoop=1;jettySize=auto;html=1;entryX=0.498;entryY=-0.024;entryDx=0;entryDy=0;entryPerimeter=0;" edge="1" parent="1" target="cOdwmNu_WqEbCSpz8FeY-10">
          <mxGeometry relative="1" as="geometry">
            <mxPoint x="420" y="210" as="sourcePoint" />
            <mxPoint x="290" y="260" as="targetPoint" />
          </mxGeometry>
        </mxCell>
        <mxCell id="cOdwmNu_WqEbCSpz8FeY-17" value="&lt;p style=&quot;margin:0px;margin-top:4px;text-align:center;text-decoration:underline;&quot;&gt;&lt;b&gt;Produtos&lt;/b&gt;&lt;/p&gt;&lt;hr size=&quot;1&quot; style=&quot;border-style:solid;&quot;&gt;&lt;p style=&quot;margin:0px;margin-left:8px;&quot;&gt;id = 1&lt;/p&gt;&lt;p style=&quot;margin:0px;margin-left:8px;&quot;&gt;nome = &quot;Banana Nanica&quot;&lt;/p&gt;&lt;p style=&quot;margin:0px;margin-left:8px;&quot;&gt;preco = 4.5&lt;/p&gt;&lt;p style=&quot;margin:0px;margin-left:8px;&quot;&gt;quantidade = 5&lt;/p&gt;" style="verticalAlign=top;align=left;overflow=fill;html=1;whiteSpace=wrap;" vertex="1" parent="1">
          <mxGeometry x="40" y="440" width="200" height="110" as="geometry" />
        </mxCell>
        <mxCell id="cOdwmNu_WqEbCSpz8FeY-23" value="N&lt;div&gt;&lt;br&gt;&lt;/div&gt;" style="text;html=1;whiteSpace=wrap;strokeColor=none;fillColor=none;align=center;verticalAlign=middle;rounded=0;" vertex="1" parent="1">
          <mxGeometry x="110" y="190" width="60" height="30" as="geometry" />
        </mxCell>
        <mxCell id="cOdwmNu_WqEbCSpz8FeY-24" value="1" style="text;html=1;whiteSpace=wrap;strokeColor=none;fillColor=none;align=center;verticalAlign=middle;rounded=0;" vertex="1" parent="1">
          <mxGeometry x="400" y="220" width="60" height="30" as="geometry" />
        </mxCell>
        <mxCell id="cOdwmNu_WqEbCSpz8FeY-25" value="1" style="text;html=1;whiteSpace=wrap;strokeColor=none;fillColor=none;align=center;verticalAlign=middle;rounded=0;" vertex="1" parent="1">
          <mxGeometry x="670" y="210" width="60" height="30" as="geometry" />
        </mxCell>
        <mxCell id="cOdwmNu_WqEbCSpz8FeY-26" value="1" style="text;html=1;whiteSpace=wrap;strokeColor=none;fillColor=none;align=center;verticalAlign=middle;rounded=0;" vertex="1" parent="1">
          <mxGeometry x="120" y="400" width="60" height="30" as="geometry" />
        </mxCell>
      </root>
    </mxGraphModel>
  </diagram>
</mxfile>
